{"title":"Jigar 1992 2CD DvDrip x264 ~ Action ~ [RdY]","uid":6722230,"size":1591030748,"categoryP":"video","categoryS":"movies","magnet":"?xt=urn:btih:fc82143b2883ec2029ee48d9fcf51e82f5fd8888&amp;dn=Jigar+1992+2CD+DvDrip+x264+%7E+Action+%7E+%5BRdY%5D&amp;tr=udp%3A%2F%2Ftracker.openbittorrent.com%3A80&amp;tr=udp%3A%2F%2Fopen.demonii.com%3A1337&amp;tr=udp%3A%2F%2Ftracker.coppersurfer.tk%3A6969&amp;tr=udp%3A%2F%2Fexodus.desync.com%3A6969","seeders":0,"leechers":0,"uploader":"ilyas2000pk","files":-1,"time":1317826900,"description":"Color\nC\n\nRelease Date\nOctober 23, 1992\n\nLanguage\nHindi\n\nGenre\nAction\n\nProducer\nSalim Akhtar\n\nDirector\nFarouq Siddique\n\nStar Cast\nAjay Devgn...... 'Raju' Raj Verma\nKarisma Kapoor...... Suman\nArjun...... Duryodhan\nAruna Irani...... Raju's Mother\nAjit...... Baba Thakur (Karate instructor)\nGulshan Grover...... Inspector. Pradhan\nParesh Rawal...... Lal Behari\nIshrat Ali...... Inspector. Khatre\nVikas Anand\nGoga Kapoor\nShashi Kiran...... Inspector. Khan\nMadhavi\nYunus Parvez\nAsha Sharma\nGurbachan\nSudhir\nBrijesh Tiwari\nHusen Khan\n\nCinematography\nAkram Khan\n\nChoreography\nChinni Prakash\nRaju Khan\n\nAction\nJai Singh Nijjar\nVeeru Devgan\n\nArt\nSudhir Tarkar\n\nEditor\nSuresh Chaturvedi\n\nDialogue\nNaeem Ejaz\nTanveer Khan\nNaeem Sha\n\nStory / Writer\nFarouq Siddique\nLalit Mahajan\n\n\nRipper                           : Rahul (XMR)\nComplete name                    : Jigar 1992 2CD DvDrip x264 ~ Action ~ [RdY]\nFormat                           : Matroska\nFile size                        : 1.48 GiB\nDuration                         : 2h 56mn\nOverall bit rate                 : 1 199 Kbps\nEncoded date                     : UTC 2011-09-24 12:16:48\n\n\nVideo\nID                               : 1\nFormat                           : AVC\nFormat/Info                      : Advanced Video Codec\nFormat profile                   : &lt;a class=&quot;__cf_email__&quot; href=&quot;/cdn-cgi/l/email-protection&quot; data-cfemail=&quot;551d3c323d1519667b65&quot;&gt;[email&amp;#160;protected]&lt;/a&gt;&lt;script data-cfhash='f9e31' type=&quot;text/javascript&quot;&gt;\n/* &lt;![CDATA[ */!function(){try{var t=&quot;currentScript&quot;in document?document.currentScript:function(){for(var t=document.getElementsByTagName(&quot;script&quot;),e=t.length;e--;)if(t[e].getAttribute(&quot;data-cfhash&quot;))return t[e]}();if(t&amp;&amp;t.previousSibling){var e,r,n,i,c=t.previousSibling,a=c.getAttribute(&quot;data-cfemail&quot;);if(a){for(e=&quot;&quot;,r=parseInt(a.substr(0,2),16),n=2;a.length-n;n+=2)i=parseInt(a.substr(n,2),16)^r,e+=String.fromCharCode(i);e=document.createTextNode(e),c.parentNode.replaceChild(e,c)}t.parentNode.removeChild(t);}}catch(u){}}()/* ]]&gt; */&lt;/script&gt;\nFormat settings, CABAC           : Yes\nFormat settings, ReFrames        : 4 frames\nFormat settings, GOP             : N=1\nMuxing mode                      : Header stripping\nCodec ID                         : V_MPEG4/ISO/AVC\nDuration                         : 2h 56mn\nBit rate                         : 974 Kbps\nWidth                            : 720 pixels\nHeight                           : 384 pixels\nDisplay aspect ratio             : 1.875\nFrame rate                       : 23.976 fps\nColor space                      : YUV\nChroma subsampling               : 4.2.0\nBit depth                        : 8 bits\nScan type                        : Progressive\nBits/(Pixel*Frame)               : 0.147\nStream size                      : 1.18 GiB (79%)\nWriting library                  : x264 core 116 r2074 2641b9e\n\n\nAudio\nID                               : 2\nFormat                           : AC-3\nFormat/Info                      : Audio Coding 3\nMode extension                   : CM (complete main)\nMuxing mode                      : Header stripping\nCodec ID                         : A_AC3\nDuration                         : 2h 56mn\nBit rate mode                    : Constant\nBit rate                         : 224 Kbps\nChannel(s)                       : 2 channels\nChannel positions                : Front: L R\nSampling rate                    : 48.0 KHz\nBit depth                        : 16 bits\nCompression mode                 : Lossy\nStream size                      : 283 MiB (19%)\n\n &lt;a href=&quot;\nhttp://desibbrg.org/images/42653277472552411376.jpg&quot; rel=&quot;nofollow&quot; target=&quot;_NEW&quot;&gt;\nhttp://desibbrg.org/images/42653277472552411376.jpg&lt;/a&gt; &lt;a href=&quot;\nhttp://desibbrg.org/images/23853330609171674486.jpg&quot; rel=&quot;nofollow&quot; target=&quot;_NEW&quot;&gt;\nhttp://desibbrg.org/images/23853330609171674486.jpg&lt;/a&gt; &lt;a href=&quot;\nhttp://desibbrg.org/images/84329137021881967330.jpg&quot; rel=&quot;nofollow&quot; target=&quot;_NEW&quot;&gt;\nhttp://desibbrg.org/images/84329137021881967330.jpg&lt;/a&gt; &lt;a href=&quot;\nhttp://desibbrg.org/images/97884981910582280379.jpg&quot; rel=&quot;nofollow&quot; target=&quot;_NEW&quot;&gt;\nhttp://desibbrg.org/images/97884981910582280379.jpg&lt;/a&gt; &lt;a href=&quot;\nhttp://desibbrg.org/images/39518514902729152047.jpg&quot; rel=&quot;nofollow&quot; target=&quot;_NEW&quot;&gt;\nhttp://desibbrg.org/images/39518514902729152047.jpg&lt;/a&gt; &lt;a href=&quot;\nhttp://desibbrg.org/images/56975700715711927080.jpg&quot; rel=&quot;nofollow&quot; target=&quot;_NEW&quot;&gt;\nhttp://desibbrg.org/images/56975700715711927080.jpg&lt;/a&gt; &lt;a href=&quot;\nhttp://desibbrg.org/images/58991397641772062090.jpg&quot; rel=&quot;nofollow&quot; target=&quot;_NEW&quot;&gt;\nhttp://desibbrg.org/images/58991397641772062090.jpg&lt;/a&gt; &lt;a href=&quot;\nhttp://desibbrg.org/images/54495626320757967133.jpg&quot; rel=&quot;nofollow&quot; target=&quot;_NEW&quot;&gt;\nhttp://desibbrg.org/images/54495626320757967133.jpg&lt;/a&gt; &lt;a href=&quot;\nhttp://desibbrg.org/images/00168414152609320377.jpg&quot; rel=&quot;nofollow&quot; target=&quot;_NEW&quot;&gt;\nhttp://desibbrg.org/images/00168414152609320377.jpg&lt;/a&gt; &lt;a href=&quot;\nhttp://desibbrg.org/images/55736517154372067040.jpg&quot; rel=&quot;nofollow&quot; target=&quot;_NEW&quot;&gt;\nhttp://desibbrg.org/images/55736517154372067040.jpg&lt;/a&gt; &lt;a href=&quot;\nhttp://desibbrg.org/images/17303656706549345930.jpg&quot; rel=&quot;nofollow&quot; target=&quot;_NEW&quot;&gt;\nhttp://desibbrg.org/images/17303656706549345930.jpg&lt;/a&gt; &lt;a href=&quot;\nhttp://desibbrg.org/images/12106682905549835041.jpg&quot; rel=&quot;nofollow&quot; target=&quot;_NEW&quot;&gt;\nhttp://desibbrg.org/images/12106682905549835041.jpg&lt;/a&gt; &lt;a href=&quot;\nhttp://desibbrg.org/images/85350983524913890364.jpg&quot; rel=&quot;nofollow&quot; target=&quot;_NEW&quot;&gt;\nhttp://desibbrg.org/images/85350983524913890364.jpg&lt;/a&gt; &lt;a href=&quot;\nhttp://desibbrg.org/images/44054993325620474328.jpg&quot; rel=&quot;nofollow&quot; target=&quot;_NEW&quot;&gt;\nhttp://desibbrg.org/images/44054993325620474328.jpg&lt;/a&gt; &lt;a href=&quot;\nhttp://desibbrg.org/images/40032303357034714408.jpg&quot; rel=&quot;nofollow&quot; target=&quot;_NEW&quot;&gt;\nhttp://desibbrg.org/images/40032303357034714408.jpg&lt;/a&gt; &lt;a href=&quot;\nhttp://desibbrg.org/images/83687017968486795904.jpg&quot; rel=&quot;nofollow&quot; target=&quot;_NEW&quot;&gt;\nhttp://desibbrg.org/images/83687017968486795904.jpg&lt;/a&gt;","torrent":{"xt":"urn:btih:fc82143b2883ec2029ee48d9fcf51e82f5fd8888","amp;dn":"Jigar+1992+2CD+DvDrip+x264+%7E+Action+%7E+%5BRdY%5D","amp;tr":["udp%3A%2F%2Ftracker.openbittorrent.com%3A80","udp%3A%2F%2Fopen.demonii.com%3A1337","udp%3A%2F%2Ftracker.coppersurfer.tk%3A6969","udp%3A%2F%2Fexodus.desync.com%3A6969"],"infoHash":"fc82143b2883ec2029ee48d9fcf51e82f5fd8888","infoHashBuffer":{"type":"Buffer","data":[252,130,20,59,40,131,236,32,41,238,72,217,252,245,30,130,245,253,136,136]},"announce":[],"urlList":[]}}